<svg xmlns="http://www.w3.org/2000/svg" viewBox="0 0 24 24"><title>icon</title><circle cx="5.3" cy="14.9" r="1.2" fill="none" stroke="#000000" stroke-linecap="round" stroke-linejoin="round"/><line x1="8.5" y1="15.3" x2="15.7" y2="15.3" fill="none" stroke="#000000" stroke-linecap="round" stroke-linejoin="round"/><circle cx="18.9" cy="14.9" r="1.2" fill="none" stroke="#000000" stroke-linecap="round" stroke-linejoin="round"/><path d="M3.3,10.14V5.3A4.8,4.8,0,0,1,8.1.5h8a4.8,4.8,0,0,1,4.8,4.8v4.92" fill="none" stroke="#000000" stroke-linecap="round" stroke-linejoin="round"/><path d="M5.3,5.7A3.2,3.2,0,0,1,8.51,2.5H15.7" fill="none" stroke="#000000" stroke-linecap="round" stroke-linejoin="round"/><path d="M23.5,19.95S20.86,22,11.88,22,.56,19.95.56,19.95L.5,13.72A3.77,3.77,0,0,1,4.32,10H19.61a3.77,3.77,0,0,1,3.82,3.72Z" fill="none" stroke="#000000" stroke-linecap="round" stroke-linejoin="round"/><path d="M1.5,20.48v2a1,1,0,0,0,1,1h2a1,1,0,0,0,1-1v-.94" fill="none" stroke="#000000" stroke-linecap="round" stroke-linejoin="round"/><path d="M18.5,21.53v1a1,1,0,0,0,1,1h2a1,1,0,0,0,1-1v-2" fill="none" stroke="#000000" stroke-linecap="round" stroke-linejoin="round"/><path d="M18,18.5s-1.35,1-6,1-6-1-6-1" fill="none" stroke="#000000" stroke-linecap="round" stroke-linejoin="round"/></svg>
